HIERARCHY
ROOT Hip
{
	OFFSET 0 0 0
	CHANNELS 6 Xposition Yposition Zposition Zrotation Yrotation Xrotation
	JOINT ShoulderCenter
	{
		OFFSET 0 0.4363 0
		CHANNELS 3 Zrotation Yrotation Xrotation
		JOINT Head
		{
			OFFSET 0 0.1849 0
			CHANNELS 3 Zrotation Yrotation Xrotation
			End Site
			{
				OFFSET 0.0 0.0891 0.0
			}
		}
		JOINT ShoulderRight
		{
			OFFSET -0.14 0 0
			CHANNELS 3 Zrotation Yrotation Xrotation
			JOINT ElbowRight
			{
				OFFSET -0.25 0 0
				CHANNELS 3 Zrotation Yrotation Xrotation
				JOINT WristRight
				{
					OFFSET -0.23 0 0
					CHANNELS 3 Zrotation Yrotation Xrotation
					End Site
					{
						OFFSET -0.0832 0.0 0.0
					}
				}
			}
		}
		JOINT ShoulderLeft
		{
			OFFSET 0.14 0 0
			CHANNELS 3 Zrotation Yrotation Xrotation
			JOINT ElbowLeft
			{
				OFFSET 0.25 0 0
				CHANNELS 3 Zrotation Yrotation Xrotation
				JOINT WristLeft
				{
					OFFSET 0.23 0 0
					CHANNELS 3 Zrotation Yrotation Xrotation
					End Site
					{
						OFFSET 0.0832 0.0 0.0
					}
				}
			}
		}
	}
	JOINT HipRight
	{
		OFFSET -0.0952 0 0
		CHANNELS 3 Zrotation Yrotation Xrotation
		JOINT KneeRight
		{
			OFFSET 0 -0.3732 0
			CHANNELS 3 Zrotation Yrotation Xrotation
			JOINT AnkleRight
			{
				OFFSET 0 -0.346 0
				CHANNELS 3 Zrotation Yrotation Xrotation
				End Site
				{
					OFFSET 0.0 0.0 0.0891
				}
			}
		}
	}
	JOINT HipLeft
	{
		OFFSET 0.0952 0 0
		CHANNELS 3 Zrotation Yrotation Xrotation
		JOINT KneeLeft
		{
			OFFSET 0 -0.3732 0
			CHANNELS 3 Zrotation Yrotation Xrotation
			JOINT AnkleLeft
			{
				OFFSET 0 -0.346 0
				CHANNELS 3 Zrotation Yrotation Xrotation
				End Site
				{
					OFFSET 0.0 0.0 0.0891
				}
			}
		}
	}
}
MOTION
Frames: 18
Frame Time: 0.033333
-0.150465 0.960746 -1.38062 163.334 -52.1502 -172.3 -0.576264 6.71279 -1.05486 0 0 2.13443e-07 41.4985 10.4798 -12.0579 180 36.3538 180 0 0 0 -89.3258 -20.1276 49.6797 180 -65.3126 -180 0 0 0 -18.6186 -0.629118 -5.45244 -1.84461 8.22485 23.0503 0 0 0 -15.784 -4.81112 -7.63747 16.6974 -0.0570977 3.40778 0 0 0 
-0.150355 0.960746 -1.38362 164.863 -52.0829 -173.397 0.80861 0.825584 -1.45362 0 0 0 32.5631 31.0287 -11.6898 180 54.3167 180 0 0 0 -86.5995 -17.1373 43.4906 180 -63.0299 -180 0 0 0 -16.6355 -0.263337 -5.68606 -3.05736 8.42967 23.3528 0 0 0 -13.8641 -4.22514 -7.49239 15.4522 -0.0424593 3.27672 0 0 0 
-0.133892 0.959698 -1.39334 171.685 -51.5406 -176.927 2.62373 -9.91536 -0.050703 0 0 0 18.5098 62.0122 -20.6051 -180 76.6227 -180 0 0 0 -80.4005 -13.6969 32.6702 -180 -58.9665 180 -3.41509e-06 4.26887e-06 1.70755e-06 -12.2824 -0.334546 -6.70391 -3.98867 8.01509 22.4888 0 0 0 -7.91344 -4.41697 -9.50301 15.6436 -0.386149 5.95617 0 0 0 
-0.130118 0.953789 -1.39827 172.422 -56.4463 -176.779 0.0746947 -18.8071 1.64364 0 0 0 -22.1995 69.5738 -57.8782 -179.999 89.1411 -179.999 0 0 0 -75.3167 -10.7177 28.8265 -180 -55.3812 -180 0 0 0 -12.3575 -0.206723 -4.94095 -2.62786 6.56428 21.7467 0 0 0 -4.52221 -3.6339 -13.1292 12.9704 -1.15253 10.963 0 0 0 
-0.130118 0.944664 -1.39827 172.765 -59.5477 -176.488 0.953665 -25.8899 0.222831 0 0 0 -59.8243 65.9698 -87.2828 -3.47303e-05 82.2896 -3.26125e-05 0 0 0 -74.2188 -6.85537 25.1313 180 -53.1671 -180 6.36111e-14 4.26887e-06 1.70755e-06 -12.7934 0.050175 -3.05967 -1.83541 4.74986 20.4068 0 0 0 -2.26807 -2.51914 -17.3766 10.0684 -2.89816 18.6257 0 0 0 
-0.130118 0.943168 -1.39827 175.305 -64.3552 -175.877 1.35846 -32.1921 -0.275451 0 0 0 -74.4086 58.1875 -96.5077 -6.32302e-06 77.6409 -1.33063e-05 0 0 0 -74.2009 -5.96002 25.7854 180 -52.6335 -180 0 0 0 -12.593 -0.35064 -2.93828 0.0987327 3.29683 18.9623 1.70755e-06 6.36111e-15 -4.26887e-07 -1.30942 -2.09817 -21.9067 9.77141 -3.86143 20.8517 0 0 0 
-0.14256 0.943168 -1.39095 177.534 -69.873 -175.175 1.81079 -37.9637 0.545616 0 0 -4.26887e-07 -74.3552 48.2609 -92.129 -2.8911e-05 79.0793 -3.77047e-05 0 0 0 -76.5014 -5.28056 29.3001 -180 -51.8239 180 -3.41509e-06 5.08889e-14 1.70755e-06 -12.5216 -0.626613 -2.3011 2.21272 2.15525 17.0661 0 0 0 -2.01978 -2.66105 -24.3207 11.8092 -4.14147 19.4592 0 2.66804e-08 0 
-0.198787 0.940405 -1.38818 175.544 -65.7297 -179.28 1.12772 -22.6332 0.420482 0 0 0 -60.9075 39.6198 -65.7931 5.91967e-05 87.2066 5.2252e-05 0 0 0 -86.4247 -8.59648 42.0394 180 -60.0815 -180 0 0 0 -14.5556 0.393747 4.73828 1.3703 1.30852 15.2299 0 0 0 -3.49527 -1.11765 -14.0824 11.4093 -4.33827 15.2726 0 0 0 
-0.234577 0.943168 -1.36959 -173.669 -73.678 172.581 0.726003 -11.2514 0.833532 0 0 0 -42.4337 15.6097 -42.11 -180 77.412 -180 0 -8.53774e-07 0 -100.481 -12.8387 50.7264 180 -67.1322 -180 0 0 0 -11.988 0.339462 6.60164 4.53037 0.661146 13.1851 0 0 0 -1.39113 0.00958328 -11.9752 7.84679 -0.779988 4.08465 0 0 0 
-0.253431 0.950861 -1.35343 -149.18 -78.0422 150.212 -0.0284245 0.364095 -0.924322 0 0 0 -36.4008 -7.08605 -28.9925 -180 65.1507 -180 0 0 0 -112.548 -9.45152 58.3739 180 -70.5249 -180 0 0 0 -8.55892 0.394897 8.13196 7.10867 0.233604 11.0463 0 1.06722e-07 0 1.71506 0.182969 -13.2588 4.73639 -0.28908 2.54317 4.26887e-07 0 0 
-0.257526 0.952571 -1.33878 -125.156 -80.7237 126.494 -0.469139 1.73338 -1.37074 0 0 0 -31.146 -12.4243 -23.9 -180 62.9025 -180 0 0 0 -112.492 -5.19428 57.06 180 -55.7299 -180 0 0 0 -8.20965 0.472973 10.7147 9.62974 -0.20458 8.93137 0 0 0 0.761387 -0.28544 -13.5423 6.35015 -0.275176 2.34092 0 0 0 
-0.265353 0.952697 -1.33819 -97.6225 -82.6107 99.1328 -0.66316 -0.211602 -2.0432 0 0 0 -31.573 -12.8718 -18.7736 -180 60.8327 -180 0 0 0 -111.296 -3.27347 52.4939 180 -44.4493 -180 0 0 0 -9.64415 0.339802 12.9115 12.0706 -0.507403 7.1536 0 0 0 -0.984606 -0.410241 -15.3933 7.08739 -0.43867 3.40592 0 0 0 
-0.271125 0.958108 -1.33647 -99.8568 -83.0174 100.812 -1.19759 0.239197 -1.83119 0 0 0 -30.4526 -9.89225 -13.7013 -180 57.9257 180 0 0 0 -110.644 -2.8663 51.6445 180 -44.8226 180 0 0 0 -10.8536 0.471164 13.3451 12.6203 -0.492638 7.62251 0 0 0 -1.937 -0.868329 -17.5093 7.03701 -1.03202 9.01795 0 0 -4.26887e-07 
-0.289158 0.970613 -1.32821 -65.6888 -85.418 65.6329 1.22098 0.135288 -2.0098 0 0 0 -32.4832 -12.2749 -7.92028 -180 53.3004 -180 0 0 0 -111.787 0.421269 54.8309 -180 -42.3391 180 0 0 0 -15.0888 2.57195 18.0764 15.7872 -0.0464392 4.0789 0 0 0 -7.78456 -3.63043 -15.1212 10.7623 -0.402199 9.79925 0 0 0 
-0.304257 0.971243 -1.32772 -50.146 -84.6085 48.6522 0.991858 0.0445287 -2.84907 0 0 0 -25.9305 -12.3514 -0.00946087 -180 49.5752 -180 2.62396e-14 -1.70755e-06 -1.76091e-06 -106.679 -2.46855 61.8996 180 -51.315 -180 0 0 0 -14.5544 3.71791 22.5067 16.1047 -0.0215504 1.3409 1.59028e-15 2.13443e-07 8.53774e-07 -10.9141 -4.29346 -10.7915 14.1714 -0.308434 7.17841 0 0 0 
-0.312289 0.973029 -1.32621 -61.2088 -85.7566 59.1339 0.489426 1.8006 -3.95328 0 0 0 -10.407 -4.5444 9.30994 -180 53.9661 -180 0 0 0 -101.474 -3.0482 64.1042 -180 -52.2255 -180 0 0 0 -16.4495 4.31179 22.9512 17.0271 -0.000728562 1.71085 0 0 0 -11.2509 -3.67246 -8.88925 13.4091 -0.178051 6.34135 0 0 0 
-0.323363 0.973688 -1.32048 -30.1469 -82.7317 26.7394 0.769808 -0.392183 -3.73165 0 0 0 1.63987 -10.0917 23.6486 -180 54.2138 -180 0 0 0 -101.389 -1.47877 68.055 -180 -52.7116 180 0 0 0 -14.6906 4.9325 27.9098 17.1628 0.0424373 -1.45765 1.59028e-15 2.13443e-07 8.53774e-07 -12.6626 -2.75543 -4.46437 13.577 -0.0320208 2.9291 0 0 0 
-0.323363 0.974606 -1.3182 -31.4769 -83.4943 28.71 -0.244914 -0.567755 -4.67681 0 0 0 43.7922 50.3624 34.0384 -7.92483e-06 56.8572 -4.77548e-06 0 0 0 -101.337 -5.51536 70.4269 180 -59.6356 -180 0 0 0 -15.7971 4.65873 26.4828 17.4582 0.00750499 -0.266958 0 0 0 -13.3501 -2.80833 -4.53485 13.76 -0.0248242 2.07817 0 0 0 
